<svg xmlns="http://www.w3.org/2000/svg" width="128" height="69.169" viewBox="0 0 128 69.169">
  <g id="Layer_2" data-name="Layer 2" transform="translate(-0.016)">
    <path id="Path_811" data-name="Path 811" d="M-180.473,329.724l-2.78,2.522-2.78-2.522a1.05,1.05,0,0,0-1.415,0l-2.78,2.522-2.78-2.522a1.05,1.05,0,0,0-1.415,0l-2.78,2.522-2.78-2.522a1.05,1.05,0,0,0-1.415,0l-2.78,2.522-2.777-2.522a1.056,1.056,0,0,0-1.491.073,1.053,1.053,0,0,0-.274.761,1.053,1.053,0,0,0,.346.73l3.489,3.152a1.056,1.056,0,0,0,1.415,0l2.78-2.522,2.78,2.522a1.056,1.056,0,0,0,1.415,0l2.78-2.522,2.78,2.522a1.056,1.056,0,0,0,1.415,0l2.78-2.522,2.78,2.522a1.056,1.056,0,0,0,.706.271,1.062,1.062,0,0,0,.709-.271l3.489-3.152a1.056,1.056,0,0,0,.072-1.491,1.056,1.056,0,0,0-1.491-.072Zm0,0" transform="translate(306.723 -271.511)" fill="#fff"/>
    <path id="Path_812" data-name="Path 812" d="M-298.37,329.723l-2.777,2.522-2.783-2.522a1.05,1.05,0,0,0-1.415,0l-2.78,2.522-2.777-2.522a1.053,1.053,0,0,0-1.418,0l-2.78,2.522-2.777-2.522a1.053,1.053,0,0,0-1.418,0l-2.777,2.522-2.78-2.522a1.056,1.056,0,0,0-1.491.072,1.056,1.056,0,0,0,.073,1.491l3.489,3.152a1.056,1.056,0,0,0,1.415,0l2.78-2.522,2.78,2.522a1.056,1.056,0,0,0,1.415,0l2.78-2.522,2.78,2.522a1.056,1.056,0,0,0,1.415,0l2.78-2.522,2.78,2.522a1.062,1.062,0,0,0,.709.271,1.063,1.063,0,0,0,.706-.271l3.489-3.152a1.053,1.053,0,0,0,.346-.73,1.053,1.053,0,0,0-.274-.761A1.056,1.056,0,0,0-298.37,329.723Zm-4.321,0" transform="translate(387.458 -271.511)" fill="#fff"/>
    <path id="Path_813" data-name="Path 813" d="M-328,317.63" transform="translate(388.404 -263.418)" fill="#fff"/>
    <path id="Path_814" data-name="Path 814" d="M-475.794,329.724l-2.78,2.522-2.78-2.522a1.05,1.05,0,0,0-1.415,0l-2.78,2.522-2.78-2.522a1.05,1.05,0,0,0-1.415,0l-2.78,2.522-2.78-2.522a1.05,1.05,0,0,0-1.415,0l-2.78,2.522-2.78-2.522a1.056,1.056,0,0,0-1.491.073,1.056,1.056,0,0,0,.076,1.491l3.486,3.152a1.056,1.056,0,0,0,1.415,0l2.78-2.522,2.78,2.522a1.056,1.056,0,0,0,1.415,0l2.78-2.522,2.78,2.522a1.056,1.056,0,0,0,1.415,0l2.78-2.522,2.78,2.522a1.062,1.062,0,0,0,.709.271,1.056,1.056,0,0,0,.706-.271l3.489-3.152a1.056,1.056,0,0,0,.076-1.491,1.056,1.056,0,0,0-1.491-.072Z" transform="translate(508.958 -271.511)" fill="#fff"/>
    <path id="Path_815" data-name="Path 815" d="M-341.376,175.888l-16.142-27.716a1.5,1.5,0,0,1,.334-2.093,1.5,1.5,0,0,1,2.1.334l17.229,29.629m18.6,23.9" transform="translate(408.813 -145.744)" fill="#fff"/>
    <path id="Path_816" data-name="Path 816" d="M-443.738,199.959h-30.1a1.5,1.5,0,0,1-1.337-.82,1.5,1.5,0,0,1,.124-1.563l37.015-51.108a1.5,1.5,0,0,1,1.677-.611,1.5,1.5,0,0,1,1.075,1.424,1.529,1.529,0,0,1-.284.9L-470.9,196.958h27.165a1.5,1.5,0,1,1,0,3Zm0,0" transform="translate(489.302 -145.746)" fill="#fff"/>
    <path id="Path_817" data-name="Path 817" d="M-412.089,199.854a1.5,1.5,0,0,1-1.221-.629,1.5,1.5,0,0,1-.2-1.36l17.585-51.161a1.494,1.494,0,0,1,.753-.9A1.494,1.494,0,0,1-394,145.73a1.5,1.5,0,0,1,.871.781,1.5,1.5,0,0,1,.043,1.17l-17.582,51.158a1.5,1.5,0,0,1-1.418,1.018Zm0,0" transform="translate(447.015 -145.645)" fill="#fff"/>
    <path id="Path_818" data-name="Path 818" d="M-504.138,243.21h-13.948a1.5,1.5,0,0,1-1.328-.807,1.5,1.5,0,0,1,.1-1.551l21.667-31.25a1.5,1.5,0,0,1,1.178-.642,1.5,1.5,0,0,1,1.221.557l7.849,9.749a1.506,1.506,0,0,1-2.345,1.891l-6.585-8.2-18.9,27.253h11.083a1.5,1.5,0,1,1,0,3Zm0,0" transform="translate(519.6 -189.001)" fill="#fff"/>
    <path id="Path_819" data-name="Path 819" d="M-278.551,226.544a1.343,1.343,0,0,0,.448-1.828c-.057-.095-5.831-9.456-16.945-3.887-7.817,3.909-10.184,3.533-10.484,3.467a1.343,1.343,0,0,0-1.686.17,1.34,1.34,0,0,0,0,1.891,2.942,2.942,0,0,0,2.172.662c1.923,0,5.292-.835,11.2-3.782,8.864-4.429,13.27,2.572,13.45,2.868a1.34,1.34,0,0,0,1.838.46Zm0,0" transform="translate(374.441 -195.918)" fill="#fff"/>
    <path id="Path_820" data-name="Path 820" d="M-388.867,254.44h2.493v17.45h7.477v2.493h-7.477v3.738a11.858,11.858,0,0,1-1.645,4.835,11.539,11.539,0,0,1-4.611,4.662,12.668,12.668,0,0,1-6.232,1.7h-2.468v-2.468h2.493a10.544,10.544,0,0,0,4.958-1.4,8.977,8.977,0,0,0,3.666-3.726,10.061,10.061,0,0,0,1.346-4.861Z" transform="translate(438.62 -220.145)" fill="#fff"/>
    <path id="Path_821" data-name="Path 821" d="M-346,261.008h4.983V238.575h2.493v3.489h7.6a22.964,22.964,0,0,0,7.354-1.746,25.293,25.293,0,0,1,8.674-1.768q3.987,0,7.6,3.663a12.1,12.1,0,0,1,3.666,8.851v9.945h7.477V263.5H-346Zm7.477,0h32.4v-9.97a10,10,0,0,0-2.966-7.029,8.508,8.508,0,0,0-6.3-2.793,26.557,26.557,0,0,0-7.915,1.721,23.474,23.474,0,0,1-7.379,1.62h-7.852Z" transform="translate(400.73 -209.264)" fill="#fff"/>
    <path id="Path_822" data-name="Path 822" d="M-176.3,263.609H-203.72v-2.493h4.983v-4.987q0-8.747,6.206-12.923a13.66,13.66,0,0,1,8.054-2.068,12.9,12.9,0,0,0,8.176-2.468Zm-19.946-2.493h17.45V242.67a16.656,16.656,0,0,1-6.257,1,10.213,10.213,0,0,0-6.257,1.746,11.316,11.316,0,0,0-3.713,4.287,14.527,14.527,0,0,0-1.223,6.43Z" transform="translate(303.298 -209.346)" fill="#fff"/>
    <path id="Path_823" data-name="Path 823" d="M-282.5,145.79v15.949h3.959v1.321h-5.28V145.79Z" transform="translate(358.15 -145.743)" fill="#fff"/>
    <path id="Path_824" data-name="Path 824" d="M-267.5,158.67v13.21h-5.557V170.56h4.236V158.67Zm-3.017,16.2a1.232,1.232,0,0,1,.4.946,1.261,1.261,0,0,1-.4.92,1.261,1.261,0,0,1-.924.394,1.261,1.261,0,0,1-.946-.394,1.261,1.261,0,0,1-.385-.924,1.179,1.179,0,0,1,.385-.946,1.22,1.22,0,0,1,.946-.381A1.179,1.179,0,0,1-270.519,174.875Zm3.035,0a1.236,1.236,0,0,1,.4.946,1.261,1.261,0,0,1-.4.924,1.28,1.28,0,0,1-.946.4,1.232,1.232,0,0,1-.924-.4,1.239,1.239,0,0,1-.4-.924,1.214,1.214,0,0,1,.4-.946,1.2,1.2,0,0,1,.924-.381,1.22,1.22,0,0,1,.939.394Z" transform="translate(350.782 -154.563)" fill="#fff"/>
    <path id="Path_825" data-name="Path 825" d="M-261.213,187.5h1.321v11.864a7.051,7.051,0,0,1-.873,3.234,6.09,6.09,0,0,1-2.44,2.468,6.73,6.73,0,0,1-3.3.9h-1.3v-1.308h1.318a5.617,5.617,0,0,0,2.629-.738,4.728,4.728,0,0,0,1.939-1.967,5.359,5.359,0,0,0,.712-2.575Z" transform="translate(347.186 -174.305)" fill="#fff"/>
    <path id="Path_826" data-name="Path 826" d="M-228.812,145.64v22.433h3.959v1.321h-5.277V145.64Z" transform="translate(321.383 -145.64)" fill="#fff"/>
    <path id="Path_827" data-name="Path 827" d="M-221.59,179.5l5.264-.054a6.4,6.4,0,0,1-2.4-3.549,6.326,6.326,0,0,1,.662-5A6.62,6.62,0,0,1-216.4,169a6.5,6.5,0,0,1,2.336-1.16,6.358,6.358,0,0,1,4.99.659,6.3,6.3,0,0,1,3.073,4,6.3,6.3,0,0,1-.659,4.987,6.808,6.808,0,0,1-1.73,1.967h6.619V180.8l-19.808.054Zm13.749-2.692a5.009,5.009,0,0,0,.53-3.972,5.128,5.128,0,0,0-2.43-3.18h0a5.11,5.11,0,0,0-3.959-.53,5.128,5.128,0,0,0-3.18,2.443,5.043,5.043,0,0,0-.526,3.972,5.043,5.043,0,0,0,2.44,3.18,5.075,5.075,0,0,0,3.965.536,5.043,5.043,0,0,0,3.18-2.44Zm-5.33-14.083a1.261,1.261,0,0,1,.41.946,1.308,1.308,0,0,1-.4.946,1.28,1.28,0,0,1-.946.4,1.261,1.261,0,0,1-.946-.4,1.3,1.3,0,0,1-.385-.946,1.283,1.283,0,0,1,.4-.946,1.3,1.3,0,0,1,.924-.381,1.3,1.3,0,0,1,.942.381Zm3.325,0a1.283,1.283,0,0,1,.4.946,1.3,1.3,0,0,1-.385.946,1.28,1.28,0,0,1-.946.4,1.3,1.3,0,0,1-.946-.4,1.308,1.308,0,0,1-.4-.946,1.283,1.283,0,0,1,.4-.946,1.305,1.305,0,0,1,.946-.381,1.3,1.3,0,0,1,.933.381Z" transform="translate(315.535 -157.076)" fill="#fff"/>
    <path id="Path_828" data-name="Path 828" d="M-157.984,180.42a5.043,5.043,0,0,0-3.71,1.545,5.065,5.065,0,0,0-1.541,3.707,5.135,5.135,0,0,0,1.541,3.723,5.3,5.3,0,0,0,3.723,1.557h6.6v1.321H-167.21v-1.333h5.28a5.653,5.653,0,0,1-.725-.608,6.367,6.367,0,0,1-1.939-4.671A6.348,6.348,0,0,1-162.655,181a6.424,6.424,0,0,1,4.671-1.954A6.364,6.364,0,0,1-153.313,181a6.588,6.588,0,0,1,1.412,2.1,5.7,5.7,0,0,1,.53,2.336,2.308,2.308,0,0,1-.107.725,1.283,1.283,0,0,1-.435.608,1.507,1.507,0,0,1-1.1.186,1.286,1.286,0,0,1-.911-.662,1.437,1.437,0,0,1-.2-1.173,1.015,1.015,0,0,1,.659-.779.9.9,0,0,1,.489-.095c.054.019.069-.025.054-.132a2.133,2.133,0,0,0-.161-.448c-.113-.211-.258-.454-.435-.725a10.8,10.8,0,0,0-.75-.99A5.1,5.1,0,0,0-157.984,180.42Z" transform="translate(278.296 -168.518)" fill="#fff"/>
  </g>
</svg>
